<?xml version="1.0" standalone="no"?>
<!DOCTYPE svg PUBLIC "-//W3C//DTD SVG 20010904//EN"
 "http://www.w3.org/TR/2001/REC-SVG-20010904/DTD/svg10.dtd">
<svg version="1.0" xmlns="http://www.w3.org/2000/svg"
 width="50.000000pt" height="50.000000pt" viewBox="0 0 50.000000 50.000000"
 preserveAspectRatio="xMidYMid meet">

<g transform="translate(0.000000,50.000000) scale(0.100000,-0.100000)"
fill="#000000" stroke="none">
<path d="M176 466 c-135 -50 -192 -197 -127 -324 40 -77 107 -116 201 -116
136 0 224 88 224 224 0 68 -16 113 -58 158 -53 59 -165 86 -240 58z m64 -56
c0 -49 -1 -50 -29 -50 -17 0 -33 4 -36 10 -11 18 36 86 63 90 1 0 2 -22 2 -50z
m75 -1 c19 -36 13 -49 -26 -49 -28 0 -29 1 -29 50 0 48 1 50 20 40 11 -6 27
-24 35 -41z m-148 2 c-16 -29 -26 -37 -39 -32 -28 10 -25 24 11 48 47 32 53
29 28 -16z m193 17 c36 -25 39 -39 12 -49 -13 -5 -23 3 -39 32 -25 45 -19 48
27 17z m-222 -74 c2 -1 0 -23 -3 -48 l-7 -46 -44 0 c-51 0 -55 11 -24 78 18
41 20 42 47 30 15 -7 29 -13 31 -14z m302 -16 c31 -67 27 -78 -24 -78 l-44 0
-7 46 c-3 25 -5 47 -3 48 4 3 52 24 56 25 2 1 12 -18 22 -41z m-231 6 c28 -6
31 -10 31 -45 l0 -39 -45 0 c-40 0 -45 2 -45 23 0 31 11 67 20 67 4 0 22 -3
39 -6z m135 -16 c3 -13 6 -33 6 -45 0 -21 -5 -23 -45 -23 l-45 0 0 39 c0 33 4
40 23 44 46 9 55 7 61 -15z m-209 -134 c3 -25 5 -47 3 -48 -2 -1 -16 -7 -31
-14 -27 -12 -29 -11 -47 30 -31 67 -27 78 24 78 l44 0 7 -46z m105 7 c0 -37
-2 -39 -36 -46 -20 -3 -38 -4 -41 -1 -3 2 -7 23 -10 45 l-6 41 47 0 46 0 0
-39z m107 -2 c-3 -22 -7 -43 -10 -45 -3 -3 -21 -2 -41 1 -34 7 -36 9 -36 46
l0 39 46 0 47 0 -6 -41z m113 24 c0 -10 -9 -37 -20 -61 -18 -41 -20 -42 -47
-30 -15 7 -29 13 -31 14 -2 1 0 23 3 48 l7 46 44 0 c35 0 44 -3 44 -17z m-220
-133 c0 -48 -1 -50 -20 -40 -23 12 -53 66 -45 80 3 6 19 10 36 10 28 0 29 -1
29 -50z m85 40 c8 -14 -22 -68 -45 -80 -19 -10 -20 -8 -20 40 0 49 1 50 29 50
17 0 33 -4 36 -10z m-141 -78 c-4 -6 -60 26 -73 42 -11 13 -10 17 10 25 21 7
27 4 45 -28 11 -20 20 -37 18 -39z m209 53 c1 -10 -60 -55 -74 -55 -4 0 2 18
14 39 17 30 25 37 40 32 10 -4 19 -11 20 -16z"/>
</g>
</svg>
